<svg xmlns="http://www.w3.org/2000/svg" width="79.916" height="79.916" viewBox="0 0 79.916 79.916">
  <g id="Grupo_23149" data-name="Grupo 23149" transform="translate(-498.324 -888.552)">
    <g id="Grupo_23139" data-name="Grupo 23139" transform="translate(498.324 888.552)">
      <path id="Trazado_4301" data-name="Trazado 4301" d="M520.034,933.111l-3.28-2.363.869-1.982-5.615-6.489,9.284-5.4,1.479-1.267-1.479-1.234-.1-2.134-6.953-3.456-2.227-5.046,9.7,3.807,3.145-.21-2.435-3.242,2.428-5.354,9.7,5.706,2.82.61,40.288,16.609a39.933,39.933,0,1,0-28.248,45.23l-28.881-13.885Z" transform="translate(-498.324 -888.552)" fill="#5dc2ae"/>
      <path id="Trazado_4302" data-name="Trazado 4302" d="M626.993,964.817a40.189,40.189,0,0,0-.586-6.843l-40.288-16.609-2.82-.61-9.7-5.706-2.428,5.354,2.436,3.242-3.145.209-9.7-3.807,2.227,5.046,6.953,3.456.1,2.134,1.479,1.234-1.479,1.267-9.284,5.4,5.615,6.489-.869,1.982,3.28,2.363.492,19.9,28.881,13.885A39.974,39.974,0,0,0,626.993,964.817Z" transform="translate(-547.077 -924.86)" fill="#52af9c"/>
    </g>
    <g id="Grupo_23148" data-name="Grupo 23148" transform="translate(508.667 898.394)">
      <g id="Grupo_23143" data-name="Grupo 23143" transform="translate(35.23 13.849)">
        <g id="Grupo_23142" data-name="Grupo 23142">
          <g id="Grupo_23141" data-name="Grupo 23141">
            <path id="Trazado_4303" data-name="Trazado 4303" d="M725.938,1018.372h0a.681.681,0,0,0,.137-.016l.039-.011a.634.634,0,0,0,.091-.031l.045-.023a.643.643,0,0,0,.075-.048.4.4,0,0,0,.044-.035.2.2,0,0,0,.029-.023c.014-.013.024-.028.036-.041s.019-.017.025-.026l1.965-2.523a.663.663,0,1,0-1.045-.816l-1.5,1.923-.7-.715a.663.663,0,1,0-.951.924l1.226,1.262c.011.01.023.019.034.029s.022.022.035.032l.021.014.041.027c.022.013.044.026.068.037l.043.018a.652.652,0,0,0,.079.024l.037.009A.784.784,0,0,0,725.938,1018.372Z" transform="translate(-720.153 -1010.608)" fill="#fff"/>
            <g id="Grupo_23140" data-name="Grupo 23140">
              <path id="Trazado_4304" data-name="Trazado 4304" d="M733.192,1006.947a.555.555,0,1,0-.555.556A.556.556,0,0,0,733.192,1006.947Z" transform="translate(-726.424 -1004.257)" fill="#fff"/>
              <path id="Trazado_4305" data-name="Trazado 4305" d="M716,1022.435a.556.556,0,1,0,.556-.556A.556.556,0,0,0,716,1022.435Z" transform="translate(-713.864 -1016.351)" fill="#fff"/>
              <path id="Trazado_4306" data-name="Trazado 4306" d="M747.365,1022.978a.556.556,0,1,0-.556-.557A.557.557,0,0,0,747.365,1022.978Z" transform="translate(-737.924 -1016.341)" fill="#fff"/>
              <path id="Trazado_4307" data-name="Trazado 4307" d="M716.442,998.153a6.025,6.025,0,1,0,2.137,4.6A6.128,6.128,0,0,0,716.442,998.153Zm-4.019,9.187a4.585,4.585,0,1,1,4.641-4.584A4.647,4.647,0,0,1,712.423,1007.34Z" transform="translate(-706.267 -996.655)" fill="#fff"/>
              <path id="Trazado_4308" data-name="Trazado 4308" d="M732.644,1038.471a.556.556,0,1,0-.555-.556A.556.556,0,0,0,732.644,1038.471Z" transform="translate(-726.43 -1028.438)" fill="#fff"/>
            </g>
          </g>
        </g>
      </g>
      <g id="Grupo_23145" data-name="Grupo 23145" transform="translate(0 0)">
        <g id="Grupo_23144" data-name="Grupo 23144" transform="translate(1.232)">
          <path id="Trazado_4309" data-name="Trazado 4309" d="M563.658,933.462h2.428v5.7h-2.428Zm-12.522,6.667,1.713-1.714,4.033,4.026-1.711,1.716Zm21.721,2.313,4.033-4.031,1.715,1.715-4.034,4.031Z" transform="translate(-551.136 -933.462)" fill="#fff"/>
        </g>
        <path id="Trazado_4310" data-name="Trazado 4310" d="M598.7,978.271a4.24,4.24,0,1,0-4.24-4.241A4.241,4.241,0,0,0,598.7,978.271Z" transform="translate(-583.731 -961.828)" fill="#fff"/>
        <path id="Trazado_4311" data-name="Trazado 4311" d="M575.744,1017.319a1.784,1.784,0,0,0-.8-1.35l-8.84-5.791a1.755,1.755,0,0,0-.6-.249v-.01c-.039-.008-.076-.017-.116-.024a.125.125,0,0,0-.039-.008h-.257c-1.544,0-7.8.01-8.346.016-.1,0-.19.009-.284.014a1.777,1.777,0,0,0-1.3.261l-8.84,5.791a1.783,1.783,0,0,0-.223,2.81l7.047,6.411a1.784,1.784,0,0,0,2.519-.119c.03-.034.058-.07.086-.105q0,9.985,0,19.97a6.4,6.4,0,0,0,.093,1.234,2.277,2.277,0,0,0,1.528,1.583h1.132a2.515,2.515,0,0,0,1.731-2.754c-.037-5.314-.015-10.629-.015-15.943v-.7h.772v.684c0,5.295.027,10.591-.018,15.886a2.578,2.578,0,0,0,1.716,2.823h1.131a2.558,2.558,0,0,0,1.693-2.787q-.014-6.209-.013-12.42v-7.6c.032.041.064.081.1.12a1.784,1.784,0,0,0,2.519.119l7.046-6.411A1.783,1.783,0,0,0,575.744,1017.319Zm-20.2,5.234-5.344-4.862,5.549-3.636v1.924h0v.747q0,3.025,0,6.05A1.835,1.835,0,0,0,555.545,1022.553Zm5.037-12.2h1.035l-.591,1.528h-.814l-.591-1.528Zm.037,10.02-1.089-.885.692-6.923h.8l.692,6.923Zm5.1,2.179a1.74,1.74,0,0,0-.218.239v-8.746l5.562,3.645Z" transform="translate(-545.516 -993.137)" fill="#fff"/>
      </g>
      <g id="Grupo_23147" data-name="Grupo 23147" transform="translate(9.974 19.45)">
        <path id="Trazado_4312" data-name="Trazado 4312" d="M591.029,1022.211" transform="translate(-591.029 -1022.211)" fill="#fff"/>
        <g id="Grupo_23146" data-name="Grupo 23146" transform="translate(12.498 9.729)">
          <path id="Trazado_4313" data-name="Trazado 4313" d="M679.5,1113.855l-.011-.007v1.538l.807.543H650.471l.807-.543v-1.538l-3.225,2.081v1.6h3.225v9.577h-1.995v1.827h32.2v-1.827h-1.995v-9.577h3.222v-1.6l-3.222-2.081Z" transform="translate(-648.054 -1103.493)" fill="#fff"/>
          <path id="Trazado_4314" data-name="Trazado 4314" d="M748.311,1106.8H754.1v-.34h-8.026v.006c-.069.027-.428.147-.428.437v1.544c0,.2.442.308.442.308l1.6.219a1.863,1.863,0,0,0,.6.072H754.1v-.282h-5.785a.348.348,0,0,1-.309-.189h5.773v-.232h-5.814v-.2h5.814v-.233h-5.814v-.193h5.814v-.233h-5.814v-.2h5.814v-.233h-5.8A.349.349,0,0,1,748.311,1106.8Z" transform="translate(-724.256 -1097.722)" fill="#fff"/>
          <path id="Trazado_4315" data-name="Trazado 4315" d="M753.79,1093.365h-5.815v.282h5.785a.35.35,0,0,1,.309.188H748.3v.233h5.813v.2H748.3v.234h5.813v.192H748.3v.234h5.813v.2H748.3v.233h5.8a.349.349,0,0,1-.332.243h-5.785v.341H756v-.007c.069-.026.427-.147.427-.436v-1.544c0-.2-.442-.309-.442-.309l-1.6-.219A1.862,1.862,0,0,0,753.79,1093.365Z" transform="translate(-726.076 -1087.5)" fill="#fff"/>
          <path id="Trazado_4316" data-name="Trazado 4316" d="M743.917,1082.359l1.6.22a1.853,1.853,0,0,0,.6.072h5.816v-.282h-5.785a.347.347,0,0,1-.308-.188h5.772v-.232h-5.813v-.2h5.813v-.233h-5.813v-.193h5.813v-.233h-5.813v-.2h5.813v-.233h-5.8a.349.349,0,0,1,.332-.243h5.785v-.341H743.9v.007c-.069.027-.427.147-.427.437v1.544C743.475,1082.255,743.917,1082.359,743.917,1082.359Z" transform="translate(-722.563 -1077.114)" fill="#fff"/>
          <path id="Trazado_4317" data-name="Trazado 4317" d="M720.788,1074.828l-1.4-.645c-.185-.085-.476.3-.476.3l-.907,1.446a2.06,2.06,0,0,0-.328.542.283.283,0,0,0-.014.031l-2.558,5.561.044.02.129.059.084.038,2.558-5.561a.372.372,0,0,1,.308-.218l-2.553,5.55.211.1,2.571-5.59.185.086-2.57,5.589.212.1,2.57-5.589.176.081-2.571,5.589.212.1,2.571-5.589.186.086-2.572,5.589.212.1,2.563-5.572a.368.368,0,0,1,.074.42L717.144,1083l.127.058.085.039.1.045,2.2-4.795h0l1.343-2.921-.005,0C721,1075.344,721.051,1074.949,720.788,1074.828Z" transform="translate(-700.409 -1072.512)" fill="#fff"/>
          <path id="Trazado_4318" data-name="Trazado 4318" d="M674.719,1106.506H680.5v-.341h-8.027v.007c-.069.026-.427.147-.427.437v1.543c0,.2.442.309.442.309l1.6.219a1.859,1.859,0,0,0,.6.072H680.5v-.282h-5.785a.35.35,0,0,1-.309-.189h5.773v-.233h-5.813v-.2h5.813v-.233h-5.813v-.192h5.813v-.234h-5.813v-.2h5.813v-.233h-5.8A.349.349,0,0,1,674.719,1106.506Z" transform="translate(-666.791 -1097.495)" fill="#fff"/>
          <path id="Trazado_4319" data-name="Trazado 4319" d="M682.409,1095.656c.068-.027.427-.146.427-.437v-1.543c0-.2-.442-.309-.442-.309l-1.6-.22a1.859,1.859,0,0,0-.6-.071h-5.815v.282h5.785a.351.351,0,0,1,.309.189H674.7v.232h5.814v.2H674.7v.233h5.814v.193H674.7v.234h5.814v.2H674.7v.233h5.8a.349.349,0,0,1-.332.243h-5.784v.341h8.025Z" transform="translate(-668.614 -1087.274)" fill="#fff"/>
          <path id="Trazado_4320" data-name="Trazado 4320" d="M669.881,1080.217v1.544c0,.2.442.308.442.308l1.6.22a1.873,1.873,0,0,0,.6.071h5.815v-.281h-5.785a.349.349,0,0,1-.308-.189h5.772v-.233H672.2v-.2h5.814v-.233H672.2v-.193h5.814v-.233H672.2v-.2h5.814v-.233h-5.8a.35.35,0,0,1,.332-.243h5.785v-.341h-8.026v.007C670.24,1079.807,669.881,1079.927,669.881,1080.217Z" transform="translate(-665.097 -1076.886)" fill="#fff"/>
          <path id="Trazado_4321" data-name="Trazado 4321" d="M676.439,1068.849h-5.784v.341h8.025v-.006c.069-.027.428-.147.428-.436V1067.2c0-.2-.443-.308-.443-.308l-1.6-.219a1.876,1.876,0,0,0-.6-.072h-5.815v.283h5.785a.349.349,0,0,1,.309.188h-5.774v.232h5.814v.2h-5.814v.233h5.814v.192h-5.814v.233h5.814v.2h-5.814v.234h5.8A.349.349,0,0,1,676.439,1068.849Z" transform="translate(-665.701 -1066.602)" fill="#fff"/>
        </g>
      </g>
    </g>
  </g>
</svg>
